# xmcd CD database file
#
# Track frame offsets:
#	183
#	13213
#	28360
#	40653
#	52798
#	67143
#	81328
#	95823
#	109363
#	122035
#	138380
#	152185
#	165103
#	177028
#	190895
#	203485
#	217240
#	226718
#	236373
#	248425
#	264620
#	278175
#	293175
#	306993
#	323905
#
# Disc length: 4510 seconds
#
# Revision: 0
# Processed by: cddbd v1.5.2PL0 Copyright (c) Steve Scherf et al.
# Submitted via: CDex 1.70beta1
#
DISCID=67119c19
DTITLE=Joe Loss - 50 Great Years CD 2
DYEAR=1900
DGENRE=British Dance Bands
TTITLE0=Trumpet Impromptu 1 (Feat. Arthur Mouncey) (Joe Loss Featuring Arthur Mouncey)
TTITLE1=Trumpet Impromptu 2 (Feat. Arthur Mouncey) (Joe Loss Featuring Arthur Mouncey)
TTITLE2=Evermore
TTITLE3=The Crazy Otto Rag
TTITLE4=Why Don't You Believe Me (Feat. Rose Brennan) (Joe Loss Featuring Rose Brennan)
TTITLE5=Be Anything (But Be Mine) (Feat. Howard Jones) (Joe Loss Featuring Howard Jones)
TTITLE6=This Is Heaven (Feat. Howard Jones) (Joe Loss Featuring Howard Jones)
TTITLE7=My Heart Belongs To Only You (Feat. Rose Brennan) (Joe Loss Featuring Rose Brennan)
TTITLE8=You Know That I'll Always Love You (Feat. Rose Brennan) (Joe Loss Featuring Rose Brennan)
TTITLE9=My Darling My Darling (From 'Where's Charley') (Feat. Rose Brennan) (Joe Loss Featuring Rose Brennan)
TTITLE10=Luna Rossa (Blushing Moon) (Feat. Howard Jones) (Joe Loss Featuring Howard Jones)
TTITLE11=Got You On My Mind (Feat. Rose Brennan) (Joe Loss Featuring Rose Brennan)
TTITLE12=Wake The Town And Tell The People
TTITLE13=Take Care Of Yourself (Feat. Howard Jones) (Joe Loss Featuring Howard Jones)
TTITLE14=Wishing Ring (Feat. Rose Brennan) (Joe Loss Featuring Rose Brennan)
TTITLE15=Stardust
TTITLE16=March Of The Mods
TTITLE17=Wheels (Joe Loss and His Orchestra)
TTITLE18=Caribbean Clipper
TTITLE19=In The Mood (Joe Loss and His Orchestra)
TTITLE20=Theme From Love Story
TTITLE21=At The Woodchoppers Ball
TTITLE22=Sugar Blues (Joe Loss and His Orchestra)
TTITLE23=So Tired
TTITLE24=Brazil (Joe Loss and His Orchestra)
EXTD=
EXTT0=
EXTT1=
EXTT2=
EXTT3=
EXTT4=
EXTT5=
EXTT6=
EXTT7=
EXTT8=
EXTT9=
EXTT10=
EXTT11=
EXTT12=
EXTT13=
EXTT14=
EXTT15=
EXTT16=
EXTT17=
EXTT18=
EXTT19=
EXTT20=
EXTT21=
EXTT22=
EXTT23=
EXTT24=
PLAYORDER=
